<?xml version="1.0" encoding="UTF-8"?>
<svg id="Layer_2" data-name="Layer 2" xmlns="http://www.w3.org/2000/svg" viewBox="0 0 923.88 204.83">
  <defs>
    <style>
      .cls-1 {
        fill-rule: evenodd;
      }
    </style>
  </defs>
  <g id="Layer_1-2" data-name="Layer 1">
    <g>
      <g>
        <path d="M584.33,83.36c-12.74-6.73-30.73-4.81-40.84,4.73-11.63,10.97-13.96,24.65-9.22,39.25,4.76,14.65,16.13,21.44,31.1,22.44,11.77,.79,22.56-2.2,32.66-9.12-2.36-4.19-4.54-8.07-6.7-11.92-21.86,10.43-38.88,7.18-40.82-7.68h49.34s.67-1.63,.88-3.33c1.8-14.44-4.64-28.16-16.4-34.37Zm-33.86,24.41c1.04-8.25,8.08-13.95,17.02-13.91,8.55,.04,15.11,5.71,15.94,13.91h-32.97Z"/>
        <path d="M418.23,79.4c-20.78,.04-36.07,14.93-36.11,35.16-.03,20.52,15.29,35.62,36.16,35.63,20.64,0,36.04-15.37,35.95-35.89-.08-19.81-15.69-34.94-36-34.9Zm.04,54.64c-10.55,.13-18.8-8.55-18.68-19.67,.11-10.55,8.31-18.81,18.65-18.79,10.21,.02,18.53,8.52,18.57,18.96,.03,10.78-8.12,19.36-18.53,19.49Z"/>
        <path d="M803.74,79.4c-20.79-.09-36.24,14.76-36.35,34.92-.11,20.6,15.07,35.77,35.91,35.87,20.71,.1,36.06-15.02,36.2-35.65,.14-19.73-15.46-35.05-35.76-35.14Zm-.57,54.64c-10.46-.16-18.41-8.65-18.33-19.58,.09-10.56,8.24-18.85,18.57-18.87,10.38-.02,18.78,8.68,18.64,19.32-.14,10.76-8.56,19.3-18.88,19.14Z"/>
        <path d="M894.51,80.95c-10.46-3.87-21.52-1.09-28.99,7-.4,.44-.95,.75-1.63,1.27-.14-2.88-.25-5.3-.37-7.8h-16.41v66.73h17.16c0-2.04,0-3.78,0-5.52,.05-11.02-.18-22.05,.26-33.05,.34-8.61,7.02-14.32,15.48-14.13,7.96,.18,13.09,5.53,13.6,14.26,.11,1.76,.13,3.52,.13,5.29,0,9.55,0,19.1,0,28.65v4.48h17.41c0-14.86,.41-29.41-.13-43.92-.42-10.97-5.77-19.3-16.51-23.27Z"/>
        <path d="M509.06,80.95c-10.46-3.87-21.52-1.09-28.99,7-.4,.44-.95,.75-1.63,1.27-.14-2.88-.25-5.3-.37-7.8h-16.41v66.73h17.16c0-2.04,0-3.78,0-5.52,.05-11.02-.18-22.05,.26-33.05,.34-8.61,7.02-14.32,15.47-14.13,7.96,.18,13.09,5.53,13.61,14.26,.1,1.76,.13,3.52,.13,5.29,0,9.55,0,19.1,0,28.65v4.48h17.41c0-14.86,.41-29.41-.13-43.92-.42-10.97-5.77-19.3-16.51-23.27Z"/>
        <polygon points="694.89 57.48 677.05 57.48 677.05 148.18 736.1 148.18 736.1 130.7 694.89 130.7 694.89 57.48"/>
        <rect x="743.17" y="81.48" width="16.98" height="66.73"/>
        <path d="M751.74,52.31c-6.23,.04-10.95,4.82-10.75,10.9,.19,5.98,4.85,10.4,10.89,10.31,6.09-.08,10.44-4.54,10.43-10.68,0-6.06-4.53-10.57-10.57-10.53Z"/>
        <polygon points="327.13 105.56 293.6 57.2 279.55 57.2 279.55 147.76 296.94 147.76 296.94 94.33 327.13 137.87 357.32 94.33 357.32 147.76 374.71 147.76 374.71 57.2 360.66 57.2 327.13 105.56"/>
        <path d="M636.75,124.81s-10.93-27.27-17.41-43.32h-20.04c7.19,16.27,25.37,57.21,27.04,61,.85,1.93,1.71,3.93,1.73,6.03,.01,2.1-.83,4.13-2.02,5.86-4.34,6.34-13.68,8.61-20.44,4.97-.98,4.76-1.95,9.51-2.93,14.27,6.96,3.86,15.72,4.74,22.98,1.48,5.36-2.41,9.6-6.85,12.73-11.83,3.13-4.98,5.26-10.51,7.35-16,6.68-17.44,20.16-52.47,25.29-65.78h-19.44l-14.83,43.32Z"/>
        <path d="M913.05,52.4c-6.06,0-10.89,4.7-10.89,10.57s4.83,10.7,10.89,10.7,10.83-4.7,10.83-10.7-4.7-10.57-10.83-10.57Zm.07,19.01c-4.77,0-8.25-3.74-8.25-8.44s3.48-8.44,8.19-8.44,8.12,3.8,8.12,8.51-3.42,8.38-8.06,8.38Z"/>
        <path d="M915.05,63.91c.53-.21,.99-.5,1.33-.93,.43-.55,.65-1.22,.65-2,0-.46-.08-.89-.24-1.29s-.39-.75-.68-1.05c-.29-.3-.65-.54-1.08-.71-.42-.17-.9-.25-1.41-.25h-4.14v10.69h2.07v-4.11h1.05c.06,0,.1,0,.16,0l2.19,4.11h2.33l-2.41-4.39c.06-.03,.11-.06,.17-.08Zm-1.74-1.48h-1.75v-2.89h1.75c.51,0,.91,.13,1.21,.4,.29,.26,.44,.61,.44,1.06s-.14,.78-.44,1.04c-.29,.26-.7,.4-1.21,.4Z"/>
      </g>
      <g>
        <path class="cls-1" d="M195.68,73.58c-1.7-2.84-3.29-5.51-4.21-7.71-1-2.41-1.83-5.56-2.71-8.89-2.21-8.4-4.95-18.84-13.14-26.99-8.19-8.15-18.68-10.89-27.1-13.08-3.35-.88-6.52-1.7-8.94-2.7-2.21-.91-4.89-2.5-7.74-4.18C124.28,5.57,114.86,0,102.88,0s-21.4,5.57-28.97,10.04c-2.84,1.68-5.53,3.27-7.74,4.18-2.42,1-5.58,1.82-8.93,2.7-8.43,2.2-18.92,4.93-27.11,13.08-8.19,8.15-10.93,18.59-13.14,26.99-.87,3.33-1.7,6.49-2.71,8.9-.91,2.19-2.5,4.86-4.19,7.69C5.59,81.11,0,90.48,0,102.41s5.59,21.3,10.08,28.83c1.69,2.83,3.29,5.51,4.2,7.7,1.01,2.41,1.83,5.57,2.71,8.9,2.21,8.39,4.95,18.83,13.14,26.98,8.19,8.15,18.68,10.88,27.1,13.08,3.37,.88,6.53,1.7,8.94,2.7,2.21,.91,4.89,2.5,7.74,4.18,7.56,4.47,16.98,10.04,28.97,10.04s21.4-5.57,28.97-10.04c2.86-1.69,5.54-3.28,7.73-4.18,2.42-1,5.58-1.82,8.92-2.69,8.45-2.2,18.94-4.93,27.13-13.09,8.19-8.15,10.94-18.59,13.14-26.98,.88-3.34,1.71-6.49,2.71-8.9,.92-2.2,2.51-4.87,4.2-7.7,4.49-7.53,10.08-16.9,10.08-28.84s-5.59-21.3-10.07-28.83Zm-7.25,53.38c-1.84,3.1-3.59,6.03-4.74,8.78-1.23,2.94-2.13,6.36-3.07,9.99-2.05,7.79-4.37,16.63-10.95,23.18-6.57,6.55-15.45,8.86-23.28,10.9-3.64,.95-7.07,1.84-10.03,3.06-2.76,1.14-5.7,2.88-8.81,4.72-7.02,4.15-14.99,8.86-24.66,8.86s-17.64-4.71-24.67-8.86c-3.11-1.84-6.05-3.58-8.81-4.72-2.96-1.22-6.39-2.12-10.03-3.06-7.83-2.04-16.71-4.35-23.28-10.9-6.58-6.55-8.9-15.38-10.95-23.18-.95-3.62-1.85-7.05-3.08-9.99-1.14-2.75-2.89-5.68-4.74-8.77-4.17-7-8.9-14.92-8.9-24.55s4.73-17.56,8.9-24.55c1.85-3.09,3.6-6.02,4.74-8.77,1.23-2.95,2.13-6.37,3.08-9.99,2.05-7.79,4.37-16.63,10.95-23.18,6.58-6.54,15.45-8.86,23.28-10.9,3.64-.95,7.08-1.84,10.03-3.06,2.76-1.14,5.7-2.88,8.82-4.72,7.02-4.15,14.99-8.86,24.66-8.86s17.64,4.71,24.66,8.86c3.11,1.84,6.05,3.58,8.81,4.72,2.96,1.22,6.39,2.12,10.03,3.07,7.83,2.04,16.71,4.35,23.28,10.9,6.57,6.54,8.9,15.38,10.95,23.18,.95,3.62,1.85,7.04,3.08,9.99h0c1.15,2.75,2.9,5.68,4.74,8.77,4.17,7,8.9,14.92,8.9,24.55s-4.73,17.56-8.9,24.55Z"/>
        <path class="cls-1" d="M83.83,67.76c6.74-.39,13.54-.92,20.2,.14,1.1,.18,2.19,.4,3.28,.67,5.51,1.39,10.72,4.09,14.25,8.46,3.28,4.05,5.03,9.37,9.13,12.59,2.81,2.21,6.46,3.16,10.04,3.3,3.58,.14,7.14-.45,10.67-1.05,.76-.13,1.58-.29,2.07-.88,.6-.72,.45-1.79,.17-2.68-2.13-6.76-9.87-10.75-11.56-17.63-.29-1.18-.27-2.65,.73-3.33,.8-.54,1.76-.31,2.75-.09,.63,.15,1.28,.29,1.9,.23,1.84-.17,3.05-2.25,2.82-4.08-.23-1.83-1.52-3.35-2.96-4.52-2.95-2.39-6.64-3.67-10.33-4.57-7.28-1.78-14.81-2.24-22.32-2.24-.94,0-1.89,0-2.84,.02-15.54,.21-31.09,1.89-46.2,5.53-3.02,.73-10.24,3.46-5.82,7.39,1.07,.95,2.48,1.4,3.86,1.74,6.55,1.62,13.4,1.38,20.14,1Z"/>
        <path class="cls-1" d="M116.84,94.57c.08-.31,.1-.62,.08-.93-.04-.6-.22-1.2-.4-1.77-1-3.16-2.16-6.54-4.87-8.47-2.33-1.65-5.36-1.89-8.23-1.95-.65-.01-1.3-.02-1.94-.02-6.29,0-12.58,.61-18.75,1.82-3.83,.75-8.34,1.89-10.99,4.99-2.37,2.77-3.48,8.31-.93,11.3,1.31,1.52,3.33,2.19,5.27,2.72,6.65,1.82,13.59,2.87,20.45,2.19,6.86-.68,13.66-3.18,18.79-7.77,.65-.59,1.31-1.25,1.53-2.1Z"/>
        <path class="cls-1" d="M137.16,123.55c2.54-1.41,4.01-3.52,3.88-6.54-.07-1.76-.12-3.54-.16-5.31-.07-3.06-1.74-4.91-4.51-5.89-2.33-.83-4.67-1.63-7.02-2.4-1.21-.4-2.41-.59-3.59-.59-1.77,0-3.5,.43-5.2,1.25-3.2,1.55-6.4,3.07-9.53,4.74-1.28,.68-2.46,1.62-3.54,2.61-1.03,.93-1.45,2.22-1.4,3.65,.04,1.02,0,2.04,0,3-.06,1.08-.1,2.09-.17,3.11-.09,1.37,.38,2.57,1.49,3.29,1.13,.73,2.39,1.35,3.68,1.74,2.98,.9,6.01,1.68,9.05,2.39,1.32,.31,2.71,.42,4.07,.43,1.92,0,3.71-.58,5.4-1.47,2.52-1.33,5.07-2.62,7.56-4Z"/>
        <path class="cls-1" d="M154.45,131.83c-1.22-.88-2.44-1.77-3.62-2.7-1.02-.8-2.07-1.16-3.13-1.16-.92,0-1.85,.27-2.78,.77-3.23,1.72-6.42,3.51-9.57,5.37-1.99,1.18-3.49,2.87-4.14,5.16-.75,2.63-1.47,5.27-2.17,7.91-.61,2.3,.2,4.04,2.33,5.15,2.15,1.12,4.25,2.32,6.42,3.39,.92,.45,1.96,.67,2.94,.99,1.47-.18,2.78-.56,4-1.23,2.29-1.25,4.57-2.52,6.85-3.79,2.27-1.27,3.54-3.26,3.97-5.77,.47-2.72,.89-5.45,1.23-8.19,.29-2.34-.26-4.43-2.32-5.9Z"/>
        <path class="cls-1" d="M160.08,101.79c-.38-.3-.82-.58-1.29-.58-.05,0-.11,0-.16,0-.37,.05-.69,.28-.98,.52-5.26,4.34-5.58,14-2.07,19.6,1.22,1.94,3.02,3.44,4.9,4.75,.34,.24,.7,.47,1.1,.52,.4,.05,.81-.07,1.17-.24,1.94-.9,3.16-2.93,3.59-5.01,.11-.52,.17-1.05,.2-1.58,.09-1.58-.12-3.2-.36-4.78-.77-4.91-2.15-10.17-6.1-13.22Z"/>
      </g>
    </g>
  </g>
</svg>